<svg xmlns="http://www.w3.org/2000/svg" viewBox="0 0 64 64">
  <defs>
    <linearGradient id="a" x1="14" y1="6" x2="52" y2="56" gradientUnits="userSpaceOnUse">
      <stop stop-color="#f2a36b"/>
      <stop offset="1" stop-color="#b84a3a"/>
    </linearGradient>
  </defs>
  <rect width="64" height="64" rx="14" fill="#183b59"/>
  <path d="M12 30 32 12l20 18v22a3 3 0 0 1-3 3H15a3 3 0 0 1-3-3V30Z" fill="#fff"/>
  <path d="M8 31 32 10l24 21" fill="none" stroke="url(#a)" stroke-width="7" stroke-linecap="round" stroke-linejoin="round"/>
  <path d="M23 53V31h22v7H32v4h11v6H32v5h13v7H23Z" fill="#183b59"/>
  <path d="M43 15 52 6l6 6-9 9 4 4-5 5-4-4-15 15-6-6 15-15-4-4 5-5 4 4Z" fill="#f2a36b"/>
</svg>
